# xmcd CD database file
# Copyright (C) 1993-1998 Ti Kan
# 
# Track frame offsets:
#     150
#     14430
#     30744
#     45307
#     62117
#     75345
#     106920
#     127932
#     148125
#     163772
#     184052
#     214609
#     232135
#     252242
# 
# Disc length: 3651 seconds
# 
# Revision: 1
# Processed by: cddbd v1.4b41PL1 Copyright (c) Steve Scherf et al.
# Submitted via: DiscPlay 4.0.4
# 
DISCID=b90e410e
DTITLE=Mary Coughlan - Live In Galway
DYEAR=1900
DGENRE=
TTITLE0=Laziest Girl
TTITLE1=The Beach
TTITLE2=Hearts
TTITLE3=Country Fair Dance
TTITLE4=I Want to be Seduced
TTITLE5=Ancient Rain
TTITLE6=Sweet Victim
TTITLE7=Not Up to Scratch
TTITLE8=Just A Friend
TTITLE9=Blue Surrender
TTITLE10=Magdalan Laundry
TTITLE11=My Land is Too Green
TTITLE12=Delaney
TTITLE13=Nobody's Business - Tango
EXTD=Submitted by: ecto@home.com\nhttp://members.home.net/ecto/
EXTT0=
EXTT1=
EXTT2=
EXTT3=
EXTT4=
EXTT5=
EXTT6=
EXTT7=
EXTT8=
EXTT9=
EXTT10=
EXTT11=
EXTT12=
EXTT13=
PLAYORDER=
